<svg width="232" height="44" viewBox="0 0 232 44" fill="none" xmlns="http://www.w3.org/2000/svg">
<path d="M10.1461 0L11.1492 5.59801L15.2192 1.18848L12.8865 6.475L16.8894 5.06162C17.8919 4.64594 19.1418 4.49462 20.6787 4.49462C24.1836 4.49462 27.7172 4.91435 28.6393 5.03248V10.2823C27.8254 10.219 25.0506 10.0165 22.9704 10.0165C20.7206 10.0165 20.0831 10.5038 19.9132 12.5349H28.4474V17.6237H19.8273V35.3122H13.3732V17.6237H10.1461L9.1431 12.1439L5.07307 16.5535L7.40575 11.2669L1.35938 13.3065L6.40272 9.74796L0 8.87097L6.40272 7.99398L1.35938 4.43548L7.40575 6.475L5.07307 1.18848L9.1431 5.59801L10.1461 0Z" fill="#F3F6FC"/>
<path d="M36.461 5.51759V35.3122H30.0488V5.51759H36.461Z" fill="#F3F6FC"/>
<path fill-rule="evenodd" clip-rule="evenodd" d="M153.115 12.5434C157.529 12.5434 160.204 13.8827 161.817 15.9117H162.115V12.5434H168.567V35.3122H162.115V32.1463H161.903C160.288 34.1353 157.573 35.3122 153.073 35.3122C143.097 35.3122 141.994 26.9914 141.994 23.9478C141.994 20.6195 143.055 12.5434 153.115 12.5434ZM148.15 23.9478C148.15 25.5719 148.829 30.0371 154.983 30.0371C160.542 30.0371 161.689 27.3985 161.689 23.9478C161.689 20.8621 160.544 17.8585 154.983 17.8585C148.787 17.8585 148.15 22.1613 148.15 23.9478Z" fill="#F3F6FC"/>
<path fill-rule="evenodd" clip-rule="evenodd" d="M121.121 15.9117C122.733 13.9228 125.45 12.5834 129.864 12.5834C139.925 12.5834 140.986 20.6596 140.986 23.9879C140.986 27.0315 139.881 35.3923 129.864 35.3923C125.408 35.3923 122.691 34.1753 121.079 32.1863H120.781V43.9979H114.329V12.5834H120.781V15.9117H121.121ZM121.246 23.9879C121.246 27.4386 122.393 30.0771 127.996 30.0771C134.15 30.0771 134.829 25.612 134.829 23.9879C134.829 22.2014 134.15 17.8986 127.996 17.8986C122.393 17.8986 121.246 20.9021 121.246 23.9879Z" fill="#F3F6FC"/>
<path d="M225.167 12.5455L218.276 29.7123L211.341 12.5455H204.549L213.734 35.3544H216.026L212.545 44H219.379L232 12.5455H225.167Z" fill="#F3F6FC"/>
<path d="M183.921 12.5434C185.139 12.5434 186.199 12.7311 187.11 12.9272L187.113 12.9293V18.9258L187.106 18.9574C186.51 18.795 184.856 18.4702 182.818 18.4702C178.02 18.4702 176.62 22.0411 176.62 25.1268V35.3143H170.168V12.5434H176.62V15.9117H177.001C178.36 13.7203 179.803 12.5434 183.921 12.5434Z" fill="#F3F6FC"/>
<path d="M198.124 26.5864V17.7404H205.032L202.941 12.5455H198.124V9.48079L191.63 9.49976V12.5455H188.489V17.7404H191.63V27.1538C191.63 30.442 191.63 35.5147 198.124 35.5147C204.618 35.5147 205.848 35.1097 205.848 35.1097V29.1027C205.241 29.1345 204.678 29.1676 204.156 29.1982C199.366 29.4793 198.124 29.5521 198.124 26.5864Z" fill="#F3F6FC"/>
<path fill-rule="evenodd" clip-rule="evenodd" d="M37.6653 23.7411C37.6653 15.9033 43.6937 12.1278 50.9131 12.1278C58.1745 12.1278 64.205 15.7409 64.205 23.7411C64.205 31.7413 58.1304 35.3143 50.9131 35.3143C43.6959 35.3143 37.6653 31.5789 37.6653 23.7411ZM43.9914 23.7411C43.9914 28.0038 46.8787 29.7101 50.9131 29.7101C54.9894 29.7101 57.8768 27.9637 57.8768 23.7411C57.8768 19.5185 54.9475 17.7721 50.9131 17.7721C46.8787 17.7721 43.9914 19.4784 43.9914 23.7411Z" fill="#F3F6FC"/>
<path d="M97.5055 12.5349L91.9845 29.3052L86.5495 12.5349H80.2652L74.8722 29.3052L69.3511 12.5349H62.8552L70.3283 35.3143H79.0764L83.4085 21.8344L87.7825 35.3143H96.5306L104.004 12.5349H97.5055Z" fill="#F3F6FC"/>
</svg>
